<svg xmlns="http://www.w3.org/2000/svg" xmlns:xlink="http://www.w3.org/1999/xlink" version="1.1" x="0px" y="0px" viewBox="0 0 96 120" style="enable-background:new 0 0 96 96;" xml:space="preserve"><style type="text/css">
	.st0{fill-rule:evenodd;clip-rule:evenodd;}
</style><path d="M58.054,23.689c0-5.544-4.51-10.054-10.054-10.054c-5.544,0-10.054,4.51-10.054,10.054S42.456,33.744,48,33.744  C53.544,33.744,58.054,29.233,58.054,23.689z M40.864,23.689c0-3.935,3.201-7.136,7.136-7.136c3.935,0,7.136,3.201,7.136,7.136  S51.934,30.825,48,30.825C44.065,30.825,40.864,27.624,40.864,23.689z M16.009,78.848c-2.728,0-4.947,2.219-4.947,4.947  c0,2.728,2.219,4.947,4.947,4.947s4.947-2.219,4.947-4.947C20.956,81.067,18.737,78.848,16.009,78.848z M16.009,85.824  c-1.119,0-2.029-0.91-2.029-2.029c0-1.119,0.91-2.029,2.029-2.029s2.029,0.91,2.029,2.029  C18.038,84.914,17.127,85.824,16.009,85.824z M9.659,64.891c0-0.806,0.653-1.459,1.459-1.459H20.9c0.806,0,1.459,0.653,1.459,1.459  c0,0.806-0.653,1.459-1.459,1.459h-9.782C10.312,66.35,9.659,65.697,9.659,64.891z M9.659,71.928c0-0.806,0.653-1.459,1.459-1.459  H20.9c0.806,0,1.459,0.653,1.459,1.459c0,0.806-0.653,1.459-1.459,1.459h-9.782C10.312,73.388,9.659,72.734,9.659,71.928z   M48,78.848c-2.728,0-4.947,2.219-4.947,4.947c0,2.728,2.219,4.947,4.947,4.947c2.728,0,4.947-2.219,4.947-4.947  C52.947,81.067,50.728,78.848,48,78.848z M48,85.824c-1.119,0-2.029-0.91-2.029-2.029c0-1.119,0.91-2.029,2.029-2.029  c1.119,0,2.029,0.91,2.029,2.029C50.029,84.914,49.119,85.824,48,85.824z M41.65,64.891c0-0.806,0.653-1.459,1.459-1.459h9.782  c0.806,0,1.459,0.653,1.459,1.459c0,0.806-0.653,1.459-1.459,1.459h-9.782C42.303,66.35,41.65,65.697,41.65,64.891z M41.65,71.928  c0-0.806,0.653-1.459,1.459-1.459h9.782c0.806,0,1.459,0.653,1.459,1.459c0,0.806-0.653,1.459-1.459,1.459h-9.782  C42.303,73.388,41.65,72.734,41.65,71.928z M89.882,55.764H81.45v-5.573c0-0.806-0.653-1.459-1.459-1.459H49.459v-4.114h0.486  c0.604,0,1.145-0.372,1.362-0.935l0.973-2.529c1.781-0.434,3.47-1.134,5.039-2.089l2.478,1.101c0.552,0.245,1.197,0.125,1.624-0.302  l2.751-2.752c0.427-0.427,0.547-1.072,0.302-1.624l-1.101-2.479c0.954-1.569,1.655-3.258,2.089-5.038l2.53-0.974  c0.563-0.217,0.935-0.758,0.935-1.362v-3.891c0-0.604-0.372-1.145-0.935-1.362l-2.529-0.973c-0.434-1.781-1.134-3.47-2.089-5.039  l1.101-2.478c0.245-0.552,0.125-1.197-0.302-1.624l-2.752-2.751c-0.427-0.427-1.072-0.547-1.624-0.302l-2.479,1.101  c-1.57-0.954-3.258-1.655-5.038-2.089l-0.974-2.53c-0.217-0.563-0.758-0.935-1.362-0.935h-3.891c-0.604,0-1.145,0.372-1.362,0.935  l-0.974,2.53c-1.78,0.434-3.468,1.134-5.038,2.089l-2.479-1.101c-0.552-0.245-1.197-0.125-1.624,0.302l-2.751,2.752  c-0.427,0.427-0.547,1.072-0.302,1.624l1.101,2.479c-0.955,1.569-1.655,3.258-2.089,5.038l-2.529,0.974  c-0.563,0.217-0.935,0.758-0.935,1.362v3.891c0,0.604,0.372,1.145,0.935,1.362l2.529,0.973c0.434,1.781,1.134,3.47,2.089,5.039  l-1.101,2.478c-0.245,0.552-0.125,1.197,0.302,1.624l2.752,2.751c0.427,0.427,1.072,0.547,1.624,0.302l2.479-1.101  c1.57,0.955,3.258,1.655,5.038,2.089l0.974,2.53c0.217,0.563,0.758,0.935,1.362,0.935h0.486v4.114H16.009  c-0.806,0-1.459,0.653-1.459,1.459v5.573H6.118c-0.806,0-1.459,0.653-1.459,1.459V91.78c0,0.806,0.653,1.459,1.459,1.459H25.9  c0.806,0,1.459-0.653,1.459-1.459V57.223c0-0.806-0.653-1.459-1.459-1.459h-8.432V51.65h29.073v4.114h-8.431  c-0.806,0-1.459,0.653-1.459,1.459V91.78c0,0.806,0.653,1.459,1.459,1.459h19.782c0.806,0,1.459-0.653,1.459-1.459V57.223  c0-0.806-0.653-1.459-1.459-1.459h-8.432V51.65h29.073v4.114H70.1c-0.806,0-1.459,0.653-1.459,1.459V91.78  c0,0.806,0.653,1.459,1.459,1.459h19.782c0.806,0,1.459-0.653,1.459-1.459V57.223C91.341,56.417,90.688,55.764,89.882,55.764z   M45.08,38.464c-1.959-0.385-3.796-1.147-5.461-2.264c-0.417-0.28-0.948-0.326-1.406-0.122l-2.281,1.013l-1.334-1.334l1.012-2.28  c0.204-0.458,0.157-0.989-0.122-1.406c-1.117-1.664-1.879-3.502-2.264-5.463c-0.097-0.492-0.44-0.9-0.908-1.081l-2.326-0.895v-1.887  l2.326-0.895c0.468-0.18,0.811-0.588,0.908-1.081c0.385-1.96,1.147-3.797,2.264-5.462c0.28-0.416,0.326-0.947,0.122-1.406  l-1.013-2.28l1.334-1.335l2.28,1.013c0.458,0.203,0.989,0.158,1.406-0.122c1.665-1.118,3.502-1.879,5.461-2.264  c0.492-0.097,0.9-0.44,1.081-0.908l0.896-2.327h1.887l0.896,2.327c0.18,0.468,0.588,0.811,1.081,0.908  c1.959,0.385,3.797,1.147,5.461,2.264c0.416,0.28,0.947,0.325,1.406,0.122l2.281-1.013l1.335,1.335l-1.012,2.28  c-0.204,0.458-0.157,0.989,0.122,1.406c1.117,1.664,1.879,3.502,2.264,5.462c0.097,0.492,0.44,0.9,0.908,1.081l2.326,0.895v1.887  l-2.326,0.896c-0.468,0.18-0.811,0.588-0.908,1.081c-0.385,1.959-1.147,3.797-2.264,5.461c-0.28,0.416-0.326,0.947-0.122,1.406  l1.013,2.28l-1.334,1.334l-2.28-1.012c-0.458-0.204-0.989-0.157-1.406,0.122c-1.664,1.117-3.502,1.879-5.462,2.264  c-0.492,0.097-0.9,0.44-1.081,0.908l-0.895,2.326h-1.887l-0.896-2.327C45.98,38.904,45.572,38.561,45.08,38.464z M24.44,90.32H7.577  V58.683H24.44V90.32z M56.432,90.32H39.568V58.683h16.863V90.32z M88.423,90.32H71.56V58.683h16.863V90.32z M79.991,78.848  c-2.728,0-4.947,2.219-4.947,4.947c0,2.728,2.219,4.947,4.947,4.947s4.947-2.219,4.947-4.947  C84.939,81.067,82.719,78.848,79.991,78.848z M79.991,85.824c-1.119,0-2.029-0.91-2.029-2.029c0-1.119,0.91-2.029,2.029-2.029  s2.029,0.91,2.029,2.029C82.02,84.914,81.11,85.824,79.991,85.824z M73.641,64.891c0-0.806,0.653-1.459,1.459-1.459h9.782  c0.806,0,1.459,0.653,1.459,1.459c0,0.806-0.653,1.459-1.459,1.459H75.1C74.294,66.35,73.641,65.697,73.641,64.891z M73.641,71.928  c0-0.806,0.653-1.459,1.459-1.459h9.782c0.806,0,1.459,0.653,1.459,1.459c0,0.806-0.653,1.459-1.459,1.459H75.1  C74.294,73.388,73.641,72.734,73.641,71.928z"/><text x="0" y="111" fill="#000000" font-size="5px" font-weight="bold" font-family="'Helvetica Neue', Helvetica, Arial-Unicode, Arial, Sans-serif">Created by Eko Purnomo</text><text x="0" y="116" fill="#000000" font-size="5px" font-weight="bold" font-family="'Helvetica Neue', Helvetica, Arial-Unicode, Arial, Sans-serif">from the Noun Project</text></svg>