<svg width="279" height="88" viewBox="0 0 279 88" fill="none" xmlns="http://www.w3.org/2000/svg">
<path d="M92.5703 15L-0.00111389 15V21.0657L29.1739 21.0657L-0.00111389 33.9747V41.2846L29.1739 29.4643L-0.00111389 61.1924L-0.00111389 72.8571C-0.00111389 72.8571 33.1164 33.0415 46.6789 33.0415C60.2413 33.0415 92.5703 72.8571 92.5703 72.8571L92.5703 61.1924L64.1838 29.7753L92.5703 42.5288V35.2189L64.1838 21.0657L92.5703 21.0657V15Z" fill="black"/>
<path d="M114.855 15.8637H122.137V42.7375L149.01 15.8637H159.332L136.399 38.0833L159.97 71H150.249L130.957 43.338L122.137 51.783V71H114.855V15.8637ZM163.875 15.8637H170.631V71H163.875V15.8637ZM204.375 30.8019H211.844C210.893 33.3792 208.779 39.2594 205.501 48.4425C203.049 55.3486 200.997 60.9786 199.346 65.3325C195.442 75.5916 192.69 81.8471 191.088 84.0991C189.487 86.3511 186.734 87.4771 182.831 87.4771C181.88 87.4771 181.142 87.4396 180.616 87.3645C180.116 87.2894 179.49 87.1518 178.74 86.9516V80.7962C179.916 81.1215 180.767 81.3216 181.292 81.3967C181.818 81.4718 182.28 81.5093 182.681 81.5093C183.932 81.5093 184.845 81.2966 185.421 80.8712C186.021 80.4709 186.522 79.9704 186.922 79.3699C187.047 79.1697 187.498 78.1438 188.273 76.2922C189.049 74.4405 189.612 73.0643 189.962 72.1635L175.099 30.8019H182.756L193.528 63.5309L204.375 30.8019ZM216.35 30.8019H222.768V37.7455C223.293 36.3943 224.582 34.7554 226.634 32.8287C228.686 30.877 231.05 29.9011 233.727 29.9011C233.853 29.9011 234.065 29.9136 234.366 29.9386C234.666 29.9636 235.179 30.0137 235.904 30.0888V37.2201C235.504 37.145 235.129 37.095 234.778 37.0699C234.453 37.0449 234.09 37.0324 233.69 37.0324C230.287 37.0324 227.672 38.1334 225.846 40.3353C224.019 42.5123 223.106 45.027 223.106 47.8795V71H216.35V30.8019ZM245.402 60.303C245.402 62.2548 246.115 63.7936 247.541 64.9196C248.967 66.0456 250.656 66.6086 252.608 66.6086C254.985 66.6086 257.287 66.0581 259.514 64.9571C263.268 63.1305 265.144 60.1404 265.144 55.9867V50.5444C264.319 51.0698 263.255 51.5077 261.954 51.858C260.653 52.2084 259.377 52.4586 258.126 52.6087L254.034 53.1342C251.582 53.4595 249.743 53.9724 248.517 54.673C246.44 55.8491 245.402 57.7257 245.402 60.303ZM261.766 46.6409C263.318 46.4407 264.356 45.7902 264.882 44.6892C265.182 44.0887 265.332 43.2254 265.332 42.0994C265.332 39.7974 264.506 38.1334 262.855 37.1075C261.228 36.0565 258.889 35.5311 255.836 35.5311C252.308 35.5311 249.806 36.4819 248.329 38.3836C247.504 39.4345 246.966 40.9984 246.716 43.0753H240.41C240.535 38.1209 242.136 34.6803 245.214 32.7536C248.317 30.8019 251.908 29.826 255.986 29.826C260.715 29.826 264.556 30.7268 267.509 32.5284C270.437 34.33 271.9 37.1325 271.9 40.9359V64.0939C271.9 64.7945 272.038 65.3575 272.313 65.7829C272.613 66.2083 273.226 66.4209 274.152 66.4209C274.453 66.4209 274.79 66.4084 275.166 66.3834C275.541 66.3334 275.941 66.2708 276.367 66.1957V71.1877C275.316 71.4879 274.515 71.6756 273.965 71.7507C273.414 71.8257 272.663 71.8633 271.713 71.8633C269.386 71.8633 267.697 71.0375 266.646 69.3861C266.095 68.5103 265.707 67.2717 265.482 65.6703C264.106 67.4719 262.129 69.0358 259.552 70.3619C256.975 71.6881 254.135 72.3512 251.032 72.3512C247.304 72.3512 244.251 71.2252 241.874 68.9732C239.522 66.6962 238.346 63.8562 238.346 60.4532C238.346 56.7249 239.509 53.8348 241.836 51.783C244.163 49.7312 247.216 48.4675 250.994 47.9921L261.766 46.6409Z" fill="black"/>
</svg>
