<svg width="1500" height="442" viewBox="0 0 1500 442" fill="none" xmlns="http://www.w3.org/2000/svg">
<path d="M1452.65 195.408C1452.65 181.615 1448.66 170.888 1440.69 163.226C1432.72 155.257 1421.23 151.273 1406.21 151.273C1378.02 151.273 1358.86 164.299 1348.75 190.35L1305.99 180.236C1312.43 160.927 1324.69 145.143 1342.77 132.883C1360.85 120.317 1382.92 114.034 1408.97 114.034C1437.78 114.034 1460.16 121.236 1476.09 135.641C1492.03 149.74 1500 169.969 1500 196.327V349.42H1452.65V306.664C1444.07 321.07 1432.27 332.41 1417.25 340.685C1402.54 348.654 1386.44 352.638 1368.97 352.638C1348.44 352.638 1331.43 347.275 1317.94 336.548C1304.46 325.82 1297.71 311.109 1297.71 292.413C1297.71 270.039 1305.68 253.488 1321.62 242.761C1337.56 232.033 1361.16 225.291 1392.42 222.532C1412.96 220.693 1427.67 218.395 1436.56 215.636C1445.75 212.571 1451.11 207.361 1452.65 200.005V195.408ZM1347.83 285.976C1347.83 297.01 1351.66 305.285 1359.32 310.802C1367.29 316.319 1377.1 319.078 1388.74 319.078C1404.68 319.078 1418.78 313.714 1431.04 302.987C1443.61 291.953 1450.81 276.322 1452.65 256.093V233.106C1444.07 242.608 1428.13 248.584 1404.83 251.036C1384.91 252.875 1370.35 256.093 1361.16 260.691C1352.27 265.288 1347.83 273.717 1347.83 285.976Z" fill="#FBFBFB"/>
<path d="M1167.59 117.252H1214.94V183.454C1221.99 162.306 1232.11 145.449 1245.29 132.883C1258.77 120.317 1274.86 114.034 1293.56 114.034H1294.48V161.847C1268.43 161.847 1248.66 169.049 1235.17 183.454C1221.69 197.553 1214.94 220.08 1214.94 251.036V349.42H1167.59V117.252Z" fill="#FBFBFB"/>
<path d="M945.869 402.289H968.396C980.656 402.289 989.544 399.684 995.061 394.474C1000.88 389.263 1006.09 380.528 1010.69 368.269L1016.21 352.638L921.503 117.251H966.097L1037.82 294.251L1102.18 117.251H1145.4L1054.37 366.889C1047.62 385.892 1040.88 400.604 1034.14 411.024C1027.4 421.445 1019.12 429.108 1009.31 434.011C999.505 438.915 986.632 441.367 970.695 441.367H945.869V402.289Z" fill="#FBFBFB"/>
<path d="M853.086 27.6063H900.439V349.424H853.086V27.6063Z" fill="#FBFBFB"/>
<path d="M575.365 27.6063H624.098V204.146L770.755 27.6063H824.544L701.794 174.263L828.222 349.424H771.674L672.83 208.744L624.098 267.131V349.424H575.365V27.6063Z" fill="#FBFBFB"/>
<path d="M387.866 376.245H326.732L124.595 217.738L252.926 376.245H204.384L78.8221 221.161L141.133 376.245H100.454L37.7259 220.116V376.245H0V0.762207H37.7259V156.891L100.454 0.762207H141.133L78.8221 155.872L204.384 0.762207H252.926L124.595 159.295L326.732 0.762207H387.866L148.5 188.504L387.866 376.245Z" fill="#FDEB83"/>
</svg>
