<svg xmlns="http://www.w3.org/2000/svg" viewBox="0 0 512 640" x="0px" y="0px"><path d="M363.85,229.46l-20.97-124.05c-2.42-14.32-16.05-24-30.37-21.58-14.32,2.42-24,16.04-21.58,30.37l9.85,58.25-80.11-30.63c-12.28-4.7-25.94,.44-32.27,11.52-17.46,1.61-27.76,14.35-27.76,34.77v.2l6.71,99.43-5.57,15.51c-7.26,20.21-4.38,42.91,7.71,60.73,2.15,3.17,4.52,6.1,7.09,8.79v56.25h12v-46.34c9.73,6.24,21.03,9.82,33.02,10.22,.79,.03,1.58,.04,2.38,.04h14.63v-12h-14.63c-.66,0-1.32-.01-1.97-.03-17.26-.58-32.78-9.21-42.59-23.67-10.09-14.87-12.4-33.07-6.34-49.93l6.42-17.87-6.86-101.53c.05-11.9,4.18-19.16,12.27-21.7-.03,3.73,.73,7.46,2.3,10.97,2.87,6.42,8.07,11.35,14.64,13.86l25.6,9.79-20.74-.43c-.18,0-.37,0-.55,0-14.28,0-26.04,11.46-26.33,25.8-.24,11.62,7.13,21.66,17.52,25.36-3.29,4.38-5.13,9.65-5.24,15.23-.14,7.04,2.46,13.71,7.33,18.78s11.43,7.95,18.46,8.1l14.48,.3c-.69,.61-1.37,1.23-2.02,1.88-8.75,8.68-13.57,20.24-13.57,32.57v22.55h12v-22.55c0-9.1,3.56-17.64,10.02-24.05,6.43-6.37,14.95-9.85,24.06-9.77l15.05,.31,.25-12-60.02-1.24c-3.83-.08-7.4-1.64-10.05-4.41-2.65-2.76-4.07-6.4-3.99-10.23,.08-3.83,1.64-7.4,4.41-10.05,1.99-1.91,4.42-3.17,7.05-3.7l45.94,.95,17.73,.51,34.89,70.01-23.57,47.17v57.11h12v-54.27l54.38-108.8-.16-.38,.29,.05,6.78-36.14Zm-43,81.84l-34.07-68.37-20.88-.6v-.03l-4.08-.08-42.82-1.24c-1.46-.03-2.9,.06-4.32,.27l-8.8-.18c-7.91-.16-14.21-6.73-14.05-14.64,.16-7.81,6.56-14.05,14.34-14.05,.1,0,.2,0,.3,0l85.96,1.77,13.05,33.64,11.19-4.34-15.96-41.14-38.59-.79,.1-.27-56.08-21.44c-3.58-1.37-6.41-4.05-7.97-7.55-1.56-3.5-1.67-7.4-.3-10.97,2.83-7.39,11.13-11.1,18.52-8.28l95.78,36.62,31.59,75.84-22.9,45.82Zm.41-131.03l-7.47-2.86-11.03-65.22c-1.32-7.8,3.96-15.22,11.75-16.53,7.8-1.32,15.21,3.96,16.53,11.75l20.61,121.94-3.09,16.48-27.31-65.56Z"/><rect x="192.1" y="82.99" width="12" height="29.59"/><rect x="216.7" y="101.96" width="29.59" height="12" transform="translate(-8.53 195.34) rotate(-45.01)"/><rect x="158.71" y="93.17" width="12" height="29.59" transform="translate(-28.11 148.06) rotate(-44.99)"/><text x="0" y="527" fill="#000000" font-size="5px" font-weight="bold" font-family="'Helvetica Neue', Helvetica, Arial-Unicode, Arial, Sans-serif">Created by Daniel T.</text><text x="0" y="532" fill="#000000" font-size="5px" font-weight="bold" font-family="'Helvetica Neue', Helvetica, Arial-Unicode, Arial, Sans-serif">from the Noun Project</text></svg>