<svg width="33" height="32" viewBox="0 0 33 32" fill="none" xmlns="http://www.w3.org/2000/svg">
<path fill-rule="evenodd" clip-rule="evenodd" d="M25.2547 4.7144C27.2585 3.95964 29.4753 4.39783 31.0401 5.85905H31.0409C33.1042 7.78433 33.5976 11.0173 32.2149 13.5464L22.0252 31.6994H11.3292L1.13951 13.5464C-0.243206 11.0173 0.251053 7.78433 2.31349 5.85905C3.87821 4.3987 6.09505 3.95964 8.09882 4.7144L9.58505 5.27422C14.8684 7.02785 11.0126 0.0417938 11.0126 0.0417938H22.3409C22.3409 0.0417938 18.4843 7.02785 23.7685 5.27422L25.2547 4.7144ZM6.8268 17.6811C4.70508 9.39359 9.64641 8.68054 10.1682 8.6288L7.06286 7.45914C6.11057 7.1003 5.05736 7.30905 4.31295 8.00343C3.21661 9.02645 2.96301 10.762 3.70828 12.1326L6.8268 17.6811ZM26.5227 17.6868L29.6444 12.1326H29.6427C30.3888 10.7628 30.1343 9.02731 29.038 8.00343C28.2945 7.30905 27.2404 7.1003 26.2881 7.45914L23.1828 8.6288C23.7047 8.68055 28.6481 9.39391 26.5227 17.6868ZM10.5529 21.424C10.8548 24.7881 13.5073 26.4055 16.8714 26.4055C19.9552 26.4055 22.8017 24.8528 22.8017 21.7259C22.8017 19.2028 20.904 17.8658 17.9712 17.262L16.2029 16.8954C14.5855 16.5504 13.8523 16.0975 13.8523 15.0839C13.8523 13.8979 15.1031 13.1 16.6558 13.1C18.3162 13.1 19.4376 13.941 19.6533 15.3427H22.5429C22.241 12.4099 19.8473 10.7279 16.6558 10.7279C13.5289 10.7279 10.9627 12.604 10.9627 15.3212C10.9627 17.5639 12.4506 18.944 15.4481 19.591L17.0008 19.936C18.7907 20.3026 19.8689 20.8849 19.8689 22.0278C19.8689 23.3001 18.5535 24.0549 16.8714 24.0549C15.1031 24.0549 13.7014 23.1923 13.4426 21.424H10.5529Z" fill="#00ADE6"/>
</svg>
