<svg xmlns="http://www.w3.org/2000/svg" xmlns:xlink="http://www.w3.org/1999/xlink" version="1.1" x="0px" y="0px" viewBox="0 0 63 78.75" enable-background="new 0 0 63 63" xml:space="preserve"><path d="M62.5,39.8c0-4.9-2.8-9.2-7.1-11.2c1.1-1.3,1.8-2.9,1.8-4.7c0-3.9-3.2-7.1-7.1-7.1s-7.1,3.2-7.1,7.1c0,1.8,0.7,3.5,1.8,4.7  c-1.1,0.5-2.1,1.2-3,2c-1.2-1-2.5-1.8-4-2.5c1.6-1.6,2.6-3.9,2.6-6.3c0-5-4-9-9-9c-5,0-9,4-9,9c0,2.5,1,4.7,2.6,6.3  c-1.5,0.6-2.8,1.5-4,2.5c-0.9-0.8-1.9-1.5-3-2c1.1-1.3,1.8-2.9,1.8-4.7c0-3.9-3.2-7.1-7.1-7.1c-3.9,0-7.1,3.2-7.1,7.1  c0,1.8,0.7,3.5,1.8,4.7c-4.3,2-7.1,6.3-7.1,11.2v1h15.1c-0.1,0.7-0.1,1.3-0.1,2c0,2.6,0.6,4.4,1.9,5.6c2.1,2,5.6,1.8,9.7,1.6  c1.4-0.1,2.9-0.2,4.4-0.2c1.5,0,3,0.1,4.4,0.2c1.2,0.1,7.3,0.9,9.7-1.6c1.2-1.2,1.9-3,1.9-5.6c0-0.7-0.1-1.3-0.1-2h15.2V39.8z   M50.1,18.9c2.8,0,5.1,2.3,5.1,5.1S52.9,29,50.1,29c-2.8,0-5.1-2.3-5.1-5.1S47.3,18.9,50.1,18.9z M24.5,21.8c0-3.9,3.1-7,7-7  s7,3.1,7,7c0,3.9-3.1,7-7,7S24.5,25.7,24.5,21.8z M12.9,18.9c2.8,0,5.1,2.3,5.1,5.1S15.7,29,12.9,29c-2.8,0-5.1-2.3-5.1-5.1  S10.1,18.9,12.9,18.9z M15.9,38.8H2.5c0.4-4,3-7.4,6.9-8.8c1,0.6,2.2,0.9,3.5,0.9c1.3,0,2.4-0.3,3.5-0.9c1.2,0.4,2.3,1.1,3.3,1.9  C17.9,33.9,16.6,36.3,15.9,38.8z M44.2,47c-1.5,1.4-4.6,1.2-8.2,1.1c-1.4-0.1-2.9-0.2-4.5-0.2c-1.6,0-3.1,0.1-4.5,0.2  c-3.6,0.2-6.7,0.4-8.2-1.1c-0.8-0.8-1.2-2.1-1.2-4.1c0-6,3.8-11.3,9.5-13.3c1.3,0.8,2.9,1.2,4.5,1.2c1.7,0,3.2-0.5,4.5-1.2  c5.7,1.9,9.5,7.2,9.5,13.3C45.5,44.8,45.1,46.2,44.2,47z M47,38.8c-0.7-2.6-1.9-4.9-3.7-6.8c1-0.9,2.1-1.5,3.4-2  c1,0.6,2.2,0.9,3.5,0.9c1.3,0,2.4-0.3,3.5-0.9c3.8,1.4,6.5,4.8,6.9,8.8H47z"/><text x="0" y="78" fill="#000000" font-size="5px" font-weight="bold" font-family="'Helvetica Neue', Helvetica, Arial-Unicode, Arial, Sans-serif">Created by Icon Fair</text><text x="0" y="83" fill="#000000" font-size="5px" font-weight="bold" font-family="'Helvetica Neue', Helvetica, Arial-Unicode, Arial, Sans-serif">from the Noun Project</text></svg>